# File created by Blade
# Date/Time:  Thu Jan 22 19:13:14 2015
# Frame Rate: 120.000 fps
#------------------------------------------------------
:FULLY-SPECIFIED
:DEGREES
1192
root 2.809393 31.410725 -4.154037 26.897865 -23.029749 1.269580
RightUpLeg -35.738672 -15.866579 -7.007940
RightLeg -0.115489 -0.000000 0.000000
RightFoot 0.728380 -5.616109 9.068329
RightToeBase 10.582085 -0.000000 -0.000000
LeftUpLeg -23.321709 34.217272 7.613987
LeftLeg 6.440331 -0.000000 -0.000000
LeftFoot -6.644714 10.087829 -27.506925
LeftToeBase 9.134821 -0.000000 -0.000000
Spine 2.208438 -13.604267 8.606891
RightShoulder -22.558597 -18.284085 -17.701447
RightArm 5.047438 30.629926 71.552044
RightForeArm 18.361049 -0.000000 20.716674
RightHand 19.087811 -0.000000 -11.979847
RightHandThumb1 -24.326973 -0.000000 -32.862282
LeftShoulder -20.340753 4.291928 21.825431
LeftArm 16.702586 -10.154290 -63.664040
LeftForeArm 17.853822 -0.000000 27.388520
LeftHand -1.765905 -0.000000 -2.509308
LeftHandThumb1 -26.253704 0.000000 33.147579
Head -25.081105 17.048155 -5.601908
1193
root 2.793868 31.411004 -4.092727 26.491508 -22.469356 1.204239
RightUpLeg -35.037601 -16.149340 -7.003748
RightLeg -0.063701 -0.000000 0.000000
RightFoot 0.499356 -5.790808 9.152501
RightToeBase 10.423570 -0.000000 -0.000000
LeftUpLeg -22.924486 34.107227 7.998271
LeftLeg 6.380089 -0.000000 -0.000000
LeftFoot -6.468552 9.800807 -27.467932
LeftToeBase 9.051625 -0.000000 -0.000000
Spine 1.949054 -13.119189 8.790190
RightShoulder -22.525721 -18.162467 -17.778801
RightArm 5.187557 30.505247 71.532566
RightForeArm 18.396579 -0.000000 21.056304
RightHand 19.130900 -0.000000 -12.055461
RightHandThumb1 -24.326973 -0.000000 -32.862282
LeftShoulder -20.562700 4.606369 21.725732
LeftArm 16.288926 -10.897430 -63.604787
LeftForeArm 18.035215 -0.000000 28.402647
LeftHand -1.820653 0.000000 -2.631405
LeftHandThumb1 -26.253704 0.000000 33.147579
Head -24.724725 16.611064 -5.636316
1194
root 2.772694 31.408523 -4.031869 26.095446 -21.871037 1.065931
RightUpLeg -34.275715 -16.390538 -6.944708
RightLeg -0.062484 -0.000000 0.000000
RightFoot 0.273820 -6.061429 9.277807
RightToeBase 10.343136 -0.000000 -0.000000
LeftUpLeg -22.535583 34.026211 8.450752
LeftLeg 6.358734 -0.000000 -0.000000
LeftFoot -6.356729 9.405126 -27.320751
LeftToeBase 9.110734 -0.000000 -0.000000
Spine 1.734123 -12.689186 9.044493
RightShoulder -22.464512 -17.967895 -17.850037
RightArm 5.230674 30.177212 71.341913
RightForeArm 18.753086 -0.000000 21.464694
RightHand 19.396810 -0.000000 -11.705656
RightHandThumb1 -24.326973 -0.000000 -32.862282
LeftShoulder -20.815699 4.756490 21.688713
LeftArm 15.656376 -11.442914 -63.437286
LeftForeArm 18.209295 -0.000000 29.443433
LeftHand -1.866629 0.000000 -2.640729
LeftHandThumb1 -26.253704 0.000000 33.147579
Head -24.424644 16.193505 -5.658481
1195
root 2.769616 31.407398 -3.979031 25.741689 -21.339639 0.960153
RightUpLeg -33.610268 -16.660425 -6.900166
RightLeg -0.097584 -0.000000 0.000000
RightFoot 0.169884 -6.253451 9.360009
RightToeBase 10.125542 -0.000000 -0.000000
LeftUpLeg -22.207927 33.881128 8.802168
LeftLeg 6.334009 -0.000000 -0.000000
LeftFoot -6.352727 9.129504 -27.001588
LeftToeBase 9.145699 -0.000000 -0.000000
Spine 1.490139 -12.211455 9.274055
RightShoulder -22.358196 -17.739596 -18.012440
RightArm 5.274636 30.291988 71.233396
RightForeArm 18.704205 -0.000000 21.903473
RightHand 19.431594 -0.000000 -10.865148
RightHandThumb1 -24.326973 -0.000000 -32.862282
LeftShoulder -21.060577 4.982178 21.605111
LeftArm 15.167436 -12.097825 -63.287818
LeftForeArm 18.171332 -0.000000 30.404554
LeftHand -2.062684 -0.000000 -2.331983
LeftHandThumb1 -26.253704 0.000000 33.147579
Head -24.104551 15.730527 -5.757515
1196
root 2.764509 31.403964 -3.926186 25.410046 -20.763468 0.828207
RightUpLeg -32.940456 -16.992007 -6.787442
RightLeg -0.163241 -0.000000 0.000000
RightFoot 0.077756 -6.389726 9.333688
RightToeBase 9.921959 -0.000000 -0.000000
LeftUpLeg -21.882400 33.613417 9.218631
LeftLeg 6.309987 -0.000000 -0.000000
LeftFoot -6.420486 8.894959 -26.642148
LeftToeBase 9.063985 -0.000000 -0.000000
Spine 1.195612 -11.770605 9.544297
RightShoulder -22.336237 -17.857861 -18.092015
RightArm 5.842144 30.552266 71.395238
RightForeArm 18.431453 -0.000000 22.240784
RightHand 19.426572 -0.000000 -10.953073
RightHandThumb1 -24.326973 -0.000000 -32.862282
LeftShoulder -21.187513 5.188986 21.582922
LeftArm 14.538936 -12.957464 -63.194366
LeftForeArm 18.370859 0.000000 31.320109
LeftHand -1.834578 -0.000000 -2.473246
LeftHandThumb1 -26.253704 0.000000 33.147579
Head -23.675513 15.261663 -5.830208
1197
root 2.757993 31.398918 -3.877988 25.127152 -20.210050 0.649774
RightUpLeg -32.301738 -17.274784 -6.628819
RightLeg -0.261927 -0.000000 0.000000
RightFoot 0.002526 -6.587296 9.312373
RightToeBase 9.759486 -0.000000 -0.000000
LeftUpLeg -21.605592 33.378413 9.654308
LeftLeg 6.315573 -0.000000 -0.000000
LeftFoot -6.524631 8.607948 -25.996093
LeftToeBase 8.814546 -0.000000 -0.000000
Spine 0.887775 -11.261904 9.836925
RightShoulder -22.263675 -17.756136 -18.236888
RightArm 6.056673 30.799726 71.336614
RightForeArm 18.382595 -0.000000 22.697264
RightHand 19.384517 -0.000000 -10.848722
RightHandThumb1 -24.326973 -0.000000 -32.862282
LeftShoulder -21.333716 5.518405 21.494364
LeftArm 14.134206 -13.791695 -63.044806
LeftForeArm 18.276414 0.000000 32.176788
LeftHand -1.832685 0.000000 -2.429029
LeftHandThumb1 -26.253704 0.000000 33.147579
Head -23.287461 14.738733 -5.905409
1198
root 2.755925 31.394542 -3.833033 24.895602 -19.703767 0.473472
RightUpLeg -31.736650 -17.546319 -6.474677
RightLeg -0.360405 -0.000000 0.000000
RightFoot -0.052052 -6.741004 9.326280
RightToeBase 9.623216 -0.000000 -0.000000
LeftUpLeg -21.384177 33.135802 10.056971
LeftLeg 6.387312 -0.000000 -0.000000
LeftFoot -6.696366 8.270395 -25.215046
LeftToeBase 8.105573 -0.000000 -0.000000
Spine 0.539896 -10.721175 10.115294
RightShoulder -22.215374 -17.747379 -18.356206
RightArm 6.322905 31.045886 71.300059
RightForeArm 18.390751 -0.000000 23.300192
RightHand 19.446320 -0.000000 -10.391426
RightHandThumb1 -24.326973 -0.000000 -32.862282
LeftShoulder -21.433656 5.693347 21.470450
LeftArm 13.526824 -14.570958 -62.845633
LeftForeArm 18.328659 -0.000000 33.059064
LeftHand -2.083252 0.000000 -2.209546
LeftHandThumb1 -26.253704 0.000000 33.147579
Head -22.929967 14.280249 -6.055750
1199
root 2.757205 31.387646 -3.787857 24.664704 -19.215845 0.312794
RightUpLeg -31.211207 -17.964351 -6.243055
RightLeg -0.472265 -0.000000 0.000000
RightFoot -0.082934 -6.742215 9.334948
RightToeBase 9.483342 -0.000000 -0.000000
LeftUpLeg -21.139127 32.815228 10.488153
LeftLeg 6.476132 -0.000000 -0.000000
LeftFoot -6.889613 7.880731 -24.329772
LeftToeBase 7.613983 -0.000000 -0.000000
Spine 0.202627 -10.206498 10.366196
RightShoulder -22.113485 -17.613312 -18.562932
RightArm 6.511972 31.261355 71.200407
RightForeArm 18.446702 -0.000000 23.813287
RightHand 19.469167 0.000000 -10.391275
RightHandThumb1 -24.326973 -0.000000 -32.862282
LeftShoulder -21.591288 5.969127 21.422027
LeftArm 13.049721 -15.344339 -62.656833
LeftForeArm 18.329012 -0.000000 33.884425
LeftHand -2.077534 -0.000000 -2.173122
LeftHandThumb1 -26.253704 0.000000 33.147579
Head -22.579537 13.795303 -6.171225
1200
root 2.756840 31.382549 -3.750557 24.460515 -18.734876 0.149075
RightUpLeg -30.730698 -18.228032 -6.097328
RightLeg -0.504929 -0.000000 0.000000
RightFoot -0.157991 -6.872497 9.344916
RightToeBase 9.360518 -0.000000 -0.000000
LeftUpLeg -20.932927 32.395427 10.967725
LeftLeg 6.642058 -0.000000 -0.000000
LeftFoot -7.116680 7.507099 -23.375992
LeftToeBase 6.687014 -0.000000 -0.000000
Spine -0.143893 -9.695545 10.578523
RightShoulder -22.069716 -17.646575 -18.634311
RightArm 6.939534 31.521156 71.183425
RightForeArm 18.544142 0.000000 24.454782
RightHand 19.140837 -0.000000 -11.080056
RightHandThumb1 -24.326973 -0.000000 -32.862282
LeftShoulder -21.704720 6.236270 21.390601
LeftArm 12.579910 -16.279103 -62.472307
LeftForeArm 18.242446 -0.000000 34.683855
LeftHand -2.125496 -0.000000 -2.073371
LeftHandThumb1 -26.253704 0.000000 33.147579
Head -22.235643 13.368112 -6.263387
